<svg width="64" height="76" viewBox="0 0 64 76" fill="none" xmlns="http://www.w3.org/2000/svg">
<path d="M31.8979 27.8624C30.4499 27.8624 29.0125 28.1103 27.6482 28.5954L5.39771 36.5066L31.8979 46.5788L32.2656 46.2928V27.8703C32.143 27.8667 32.0205 27.8624 31.8979 27.8624Z" fill="#05858D"/>
<path d="M17.9305 32.0505L5.39771 36.5066L17.7888 41.2161C15.0002 38.8449 15.0625 34.3381 17.9305 32.0505Z" fill="#05858D"/>
<path d="M36.1477 28.5954C34.7833 28.1103 33.346 27.8624 31.8979 27.8624V46.4304L58.3981 36.5066L36.1477 28.5954Z" fill="#0296E5"/>
<path d="M31.8979 45.985L27.4168 51.2809C27.0454 51.7938 26.3798 51.9998 25.7835 51.7865L5.39771 44.495V64.1289C5.39771 65.2928 6.12907 66.3312 7.22501 66.7232L28.3073 74.2638C29.4595 74.6759 30.6741 74.8867 31.8977 74.8867C32.0204 74.8867 32.143 74.883 32.2654 74.8788V46.4317L31.8979 45.985Z" fill="#0296E5"/>
<path d="M10.7031 65.6452V46.3925L5.39783 44.4949V64.1288C5.39783 65.2927 6.12919 66.331 7.22513 66.7231L11.9966 68.4297C11.1932 67.7497 10.7031 66.7403 10.7031 65.6452Z" fill="#05858D"/>
<path d="M38.0124 51.935C37.4161 52.1483 36.7506 51.9423 36.3791 51.4294L31.8979 45.9852V74.8867C33.1217 74.8867 34.3362 74.6761 35.4886 74.2639L56.5708 66.7233C57.6668 66.3312 58.3981 65.2929 58.3981 64.129V44.6435L38.0124 51.935Z" fill="#0296E5"/>
<path d="M44.3957 4.42235C43.1638 3.79222 42.1575 2.78416 41.5302 1.55062C41.3939 1.28269 41.1203 1.11243 40.8197 1.11243C40.519 1.11243 40.2456 1.28269 40.1093 1.55062C39.482 2.78416 38.4757 3.79207 37.2438 4.42235C36.9767 4.55892 36.8074 4.8319 36.8074 5.1319V5.15149C36.8074 5.44822 36.9715 5.7221 37.2359 5.85703C38.4638 6.4833 39.4676 7.48468 40.0968 8.71079C40.2319 8.97413 40.5053 9.13741 40.8013 9.13741H40.8384C41.1344 9.13741 41.4078 8.97413 41.5429 8.71079C42.1722 7.48468 43.1759 6.4833 44.4038 5.85703C44.6682 5.72224 44.8324 5.44837 44.8324 5.15149V5.1319C44.8321 4.83205 44.6627 4.55906 44.3957 4.42235Z" fill="#FFE02F"/>
<path d="M26.4297 7.71355C25.5077 7.24196 24.7547 6.4876 24.2852 5.56447C24.1832 5.36393 23.9785 5.23657 23.7535 5.23657C23.5284 5.23657 23.3237 5.36393 23.2218 5.56447C22.7523 6.4876 21.9992 7.24196 21.0773 7.71355C20.8775 7.81582 20.7507 8.02007 20.7507 8.24451V8.2592C20.7507 8.48127 20.8736 8.68626 21.0715 8.7872C21.9905 9.25581 22.7417 10.0053 23.2126 10.9229C23.3137 11.12 23.5183 11.2422 23.7398 11.2422H23.7676C23.989 11.2422 24.1937 11.12 24.2948 10.9229C24.7657 10.0053 25.5169 9.25581 26.4359 8.7872C26.6338 8.68626 26.7567 8.48127 26.7567 8.2592V8.24451C26.7562 8.02007 26.6295 7.81582 26.4297 7.71355Z" fill="#FFEA7E"/>
<path d="M40.2417 5.85703C39.9773 5.72224 39.8132 5.44837 39.8132 5.15149V5.1319C39.8132 4.8319 39.9825 4.55892 40.2496 4.42235C41.0503 4.0128 41.7548 3.44279 42.3227 2.75581C42.0168 2.38575 41.7499 1.98244 41.5302 1.55062C41.3939 1.28269 41.1203 1.11243 40.8197 1.11243C40.5191 1.11243 40.2456 1.28269 40.1093 1.55062C39.482 2.78416 38.4757 3.79207 37.2438 4.42235C36.9767 4.55892 36.8074 4.8319 36.8074 5.1319V5.15149C36.8074 5.44822 36.9715 5.7221 37.2359 5.85703C38.4638 6.4833 39.4676 7.48468 40.0968 8.71079C40.2319 8.97413 40.5053 9.13741 40.8013 9.13741H40.8384C41.1344 9.13741 41.4078 8.97413 41.5429 8.71079C41.7601 8.28774 42.0227 7.89215 42.3228 7.52876C41.753 6.83911 41.0458 6.26717 40.2417 5.85703Z" fill="#FBC700"/>
<path d="M23.669 8.7872C23.4711 8.68626 23.3484 8.48127 23.3484 8.2592V8.24451C23.3484 8.02007 23.4751 7.81567 23.6749 7.71355C24.1958 7.4471 24.66 7.08788 25.0524 6.66157C24.7502 6.33323 24.4896 5.96614 24.2853 5.56447C24.1833 5.36393 23.9786 5.23657 23.7536 5.23657C23.5286 5.23657 23.3239 5.36393 23.2219 5.56447C22.7524 6.4876 21.9994 7.24196 21.0774 7.71355C20.8776 7.81582 20.7509 8.02007 20.7509 8.24451V8.2592C20.7509 8.48127 20.8738 8.68626 21.0715 8.7872C21.9905 9.25581 22.7417 10.0053 23.2125 10.9229C23.3136 11.12 23.5183 11.2422 23.7398 11.2422H23.7676C23.989 11.2422 24.1937 11.12 24.2948 10.9229C24.4976 10.5279 24.755 10.1665 25.0526 9.84274C24.6585 9.41449 24.1922 9.05409 23.669 8.7872Z" fill="#FFE02F"/>
<path d="M62.3924 42.0212L58.3979 36.5065L31.8977 45.985L36.3788 52.1714C36.7504 52.6843 37.4158 52.8903 38.0121 52.677L61.7185 44.1978C62.6125 43.8782 62.9494 42.79 62.3924 42.0212Z" fill="#0296E5"/>
<path d="M1.40334 42.0212L5.39787 36.5065L31.898 45.985L27.4169 52.1714C27.0454 52.6843 26.3799 52.8903 25.7836 52.677L2.07711 44.1978C1.1832 43.8782 0.846387 42.79 1.40334 42.0212Z" fill="#0296E5"/>
<path d="M5.69204 43.5974L9.71077 38.0493L5.39768 36.5065L1.4033 42.0212C0.846355 42.79 1.18331 43.8782 2.07707 44.198L5.78482 45.5241C5.32925 45.0053 5.24924 44.2088 5.69204 43.5974Z" fill="#05858D"/>
<path d="M4.59823 35.8535L0.603844 41.3681C-0.388777 42.7384 0.210032 44.676 1.80443 45.2461L4.3867 46.1697V64.1288C4.3867 65.7586 5.41777 67.2226 6.95249 67.7713L28.0346 75.312C30.5556 76.2139 33.3581 76.2446 35.9655 75.312L57.0477 67.7713C58.5824 67.2226 59.6135 65.7586 59.6135 64.1288V58.4463C59.6135 57.8313 59.1152 57.333 58.5002 57.333C57.8852 57.333 57.3869 57.8313 57.3869 58.4463V64.1288C57.3869 64.8205 56.9493 65.4419 56.2979 65.6749L35.2155 73.2155C34.5324 73.4599 33.8288 73.6248 33.1133 73.7085V49.4198L35.5795 52.8244C36.2325 53.7265 37.431 54.1043 38.4895 53.7253C39.6694 53.3033 56.8648 47.153 57.387 46.9661V53.2508C57.387 53.8657 57.8854 54.3641 58.5004 54.3641C59.1153 54.3641 59.6137 53.8657 59.6137 53.2508V46.1697L62.1959 45.2461C63.7891 44.6762 64.3897 42.739 63.3962 41.368L63.3964 41.3681L59.402 35.8535C59.2881 35.6961 59.0885 35.5341 58.8732 35.4577L49.223 32.0266C48.6435 31.8201 48.007 32.1231 47.8011 32.7026C47.595 33.282 47.8977 33.9185 48.4771 34.1245L55.1857 36.5098L33.1132 44.4045V29.029C34.0546 29.1197 34.9803 29.3256 35.8767 29.6444L43.5542 32.3743C44.1335 32.5806 44.7702 32.2778 44.9761 31.6983C45.1821 31.1189 44.8795 30.4824 44.3001 30.2763L36.6226 27.5465C33.7074 26.5098 30.4435 26.4561 27.3771 27.5465L5.12682 35.4577C4.91455 35.5332 4.71757 35.6888 4.59823 35.8535ZM2.40695 42.6744L5.91133 37.8361L30.2278 46.5335C29.4026 47.6727 30.1221 46.6796 26.6171 51.5185C26.5365 51.6296 26.3894 51.6748 26.2606 51.6289C25.8464 51.4808 2.9872 43.3045 2.5542 43.1497C2.35871 43.0796 2.28508 42.8426 2.40695 42.6744ZM7.70212 65.6749C7.05076 65.442 6.61316 64.8205 6.61316 64.1288V46.9661L25.5108 53.7253C26.5791 54.1076 27.7689 53.7172 28.4156 52.831C28.4173 52.8287 28.4191 52.8268 28.4207 52.8246C28.4207 52.8244 28.4207 52.8244 28.4207 52.8244L30.8867 49.4198V73.7084C30.1712 73.6246 29.4675 73.4597 28.7844 73.2155L7.70212 65.6749ZM61.5931 42.6744C61.7148 42.8424 61.6412 43.0796 61.446 43.1497C61.2232 43.2294 37.9737 51.545 37.7396 51.6287C37.6108 51.6751 37.4635 51.6298 37.3829 51.5185L33.7721 46.5335L58.0887 37.8361L61.5931 42.6744ZM28.1232 29.6444C29.0196 29.3257 29.9452 29.1198 30.8866 29.029V44.4045C29.9318 44.0629 9.6743 36.8174 8.81423 36.5097L28.1232 29.6444Z" fill="#2A3F9F"/>
<path d="M33.1132 23.2002V9.28646C33.1132 8.67147 32.6149 8.17316 31.9999 8.17316C31.3849 8.17316 30.8866 8.67147 30.8866 9.28646V23.2001C30.8866 23.8151 31.3849 24.3134 31.9999 24.3134C32.6149 24.3134 33.1132 23.8151 33.1132 23.2002Z" fill="#FF8700"/>
<path d="M46.7416 11.4148C46.4236 11.5539 38.9404 14.9263 37.7032 24.2025C37.6144 24.8685 38.1319 25.463 38.8082 25.463C39.3575 25.463 39.8357 25.0563 39.9103 24.4967C40.3567 21.1495 41.7817 18.2803 44.1458 15.9688C45.9223 14.2316 47.5984 13.4707 47.6359 13.4539C48.1976 13.2068 48.4537 12.5514 48.2077 11.9888C47.9614 11.4255 47.3055 11.1687 46.7416 11.4148Z" fill="#FF8700"/>
<path d="M44.4791 26.5806C44.1736 27.1143 44.3586 27.7944 44.8922 28.0998C45.4251 28.4049 46.1057 28.2207 46.4113 27.6866C48.9972 23.1693 52.8382 21.4058 55.6053 20.7221C56.2022 20.5746 56.5665 19.971 56.4189 19.3741C56.2714 18.7773 55.6677 18.4127 55.0709 18.5605C52.4603 19.206 47.613 21.1057 44.4791 26.5806Z" fill="#FF8700"/>
<path d="M15.7922 11.9888C15.546 12.5521 15.8029 13.2085 16.3663 13.4549C16.4326 13.4839 23.0165 16.4505 24.0896 24.4968C24.1711 25.1082 24.7331 25.5344 25.3404 25.4532C25.9499 25.3719 26.378 24.812 26.2968 24.2025C25.0595 14.9263 17.5762 11.5537 17.2582 11.4148C16.6949 11.1687 16.0388 11.4256 15.7922 11.9888Z" fill="#FF8700"/>
<path d="M7.58095 19.3741C7.43355 19.971 7.79782 20.5746 8.39455 20.7221C11.1616 21.406 15.0028 23.1695 17.5885 27.6866C17.8941 28.2207 18.5747 28.4051 19.1076 28.0998C19.6413 27.7943 19.8262 27.1141 19.5207 26.5806C16.387 21.1057 11.5394 19.2058 8.92894 18.5605C8.33162 18.4128 7.7285 18.7776 7.58095 19.3741Z" fill="#FF8700"/>
<path d="M52.3771 11.3215C51.7621 11.3215 51.2638 11.8198 51.2638 12.4348C51.2638 13.0498 51.7621 13.5481 52.3771 13.5481H53.1524V14.3234C53.1524 14.9384 53.6507 15.4367 54.2656 15.4367C54.8806 15.4367 55.3789 14.9384 55.3789 14.3234V13.5481H56.1542C56.7692 13.5481 57.2675 13.0498 57.2675 12.4348C57.2675 11.8198 56.7692 11.3215 56.1542 11.3215H55.3789V10.5464C55.3789 9.93141 54.8806 9.43311 54.2656 9.43311C53.6507 9.43311 53.1524 9.93141 53.1524 10.5464V11.3215H52.3771Z" fill="#FF8700"/>
<path d="M7.54848 26.7491H6.77319C6.15822 26.7491 5.65991 27.2474 5.65991 27.8624C5.65991 28.4774 6.15822 28.9757 6.77319 28.9757H7.54848V29.751C7.54848 30.3659 8.04679 30.8642 8.66176 30.8642C9.27674 30.8642 9.77504 30.3659 9.77504 29.751V28.9757H10.5503C11.1653 28.9757 11.6636 28.4774 11.6636 27.8624C11.6636 27.2474 11.1653 26.7491 10.5503 26.7491H9.77504V25.9738C9.77504 25.3588 9.27674 24.8605 8.66176 24.8605C8.04679 24.8605 7.54848 25.3588 7.54848 25.9738V26.7491Z" fill="#FF8700"/>
<path d="M45.0049 3.43135C43.9875 2.91077 43.1421 2.06362 42.6246 1.04592C41.9148 -0.348681 39.9288 -0.348533 39.219 1.04621C38.7016 2.06362 37.8561 2.91092 36.8389 3.43121C35.445 4.14402 35.4544 6.14618 36.8322 6.84875C37.8451 7.36532 38.6892 8.20713 39.2084 9.2192C39.915 10.5958 41.9287 10.5961 42.6355 9.21905C43.1547 8.20728 43.9987 7.36547 45.0118 6.8486C46.3891 6.14618 46.399 4.14461 45.0049 3.43135ZM40.9217 7.72499C40.2825 6.67522 39.3885 5.78117 38.3387 5.14183C39.3889 4.50265 40.2827 3.60948 40.9219 2.56045C41.5612 3.60948 42.4548 4.50265 43.5047 5.14183C42.4551 5.78117 41.561 6.67508 40.9217 7.72499Z" fill="#2A3F9F"/>
<path d="M22.324 11.4314C22.9565 12.6634 24.7547 12.6654 25.3873 11.4314C25.7492 10.726 26.3375 10.1392 27.0436 9.77909C28.2681 9.15475 28.295 7.36545 27.0393 6.72255C27.0392 6.72241 27.039 6.72241 27.0389 6.72226C26.3298 6.35962 25.7406 5.76927 25.3798 5.05972C24.7452 3.81208 22.9666 3.81179 22.3315 5.05987C21.9708 5.76912 21.3817 6.35962 20.6717 6.7227C19.4346 7.35639 19.4252 9.14555 20.6678 9.77909C21.3738 10.1391 21.9621 10.726 22.324 11.4314ZM23.8556 6.82795C24.2475 7.37703 24.7311 7.8605 25.2806 8.25208C24.7314 8.64382 24.2475 9.12759 23.8556 9.67711C23.4639 9.12788 22.9801 8.64382 22.4307 8.25208C22.9802 7.86035 23.464 7.37703 23.8556 6.82795Z" fill="#2A3F9F"/>
</svg>
