<svg width="17" height="22" viewBox="0 0 17 22" fill="none" xmlns="http://www.w3.org/2000/svg">
<path fill-rule="evenodd" clip-rule="evenodd" d="M8.19639 17.6316L2.82379 20.881C2.39483 21.1271 1.86636 20.9529 1.62988 20.4874V20.4874C1.56146 20.3432 1.52455 20.1833 1.52209 20.0206V5.62241C1.52209 2.87641 3.22176 1.77802 5.66762 1.77802H11.4133C13.7846 1.77802 15.5588 2.80319 15.5588 5.43934V20.0206C15.5588 20.2803 15.4654 20.5294 15.299 20.7131C15.1326 20.8968 14.907 21 14.6717 21C14.5216 20.9974 14.3741 20.9566 14.2406 20.881L8.8348 17.6316C8.6356 17.5128 8.39559 17.5128 8.19639 17.6316Z" stroke="#67686D" stroke-width="2" stroke-linecap="round" stroke-linejoin="round"/>
</svg>
